<svg xmlns="http://www.w3.org/2000/svg" width="20" height="20" viewBox="0 0 20 20">
    <g>
        <path
            d="M18.33,1.88h-2.7V.63A.63.63,0,0,0,15,0a.62.62,0,0,0-.62.63V1.88H10.63V.63a.63.63,0,1,0-1.25,0V1.88H5.63V.63a.63.63,0,1,0-1.25,0V1.88H1.67A1.66,1.66,0,0,0,0,3.54V18.33A1.67,1.67,0,0,0,1.67,20H18.33A1.67,1.67,0,0,0,20,18.33V3.54A1.66,1.66,0,0,0,18.33,1.88Zm.42,16.45a.42.42,0,0,1-.42.42H1.67a.42.42,0,0,1-.42-.42V3.54a.41.41,0,0,1,.42-.41H4.38V4.38a.63.63,0,0,0,1.25,0V3.13H9.38V4.38a.63.63,0,0,0,1.25,0V3.13h3.75V4.38A.62.62,0,0,0,15,5a.63.63,0,0,0,.63-.62V3.13h2.7a.41.41,0,0,1,.42.41ZM4.38,9.38h2.5V7.5H4.38Zm0,3.12h2.5V10.63H4.38Zm0,3.13h2.5V13.75H4.38Zm4.37,0h2.5V13.75H8.75Zm0-3.13h2.5V10.63H8.75Zm0-3.12h2.5V7.5H8.75Zm4.38,6.25h2.5V13.75h-2.5Zm0-3.13h2.5V10.63h-2.5Zm0-3.12h2.5V7.5h-2.5Z"
        />
    </g>
</svg>
