<svg xmlns="http://www.w3.org/2000/svg" width="25" height="17" viewBox="0 0 25 17">
    <g>
        <path
            d="M13.11-.006c3.04.047 6.128 1.447 8.73 3.974 1.295 1.259 2.305 2.724 3.102 4.337a.423.423 0 0 1 .013.329c-1.671 3.357-4.117 5.955-7.645 7.373-4.371 1.755-8.517 1.158-12.366-1.493-2.178-1.501-3.764-3.52-4.926-5.876a.387.387 0 0 1-.002-.3C1.401 5.54 3.374 3.273 6.11 1.709c1.97-1.126 4.094-1.715 7-1.715zm-.872 14.94c1.364-.002 2.58-.193 3.65-.573 2.974-1.058 5.162-3.038 6.727-5.733.048-.082.021-.25-.032-.342-1.05-1.818-2.428-3.339-4.212-4.464C15.484 2 12.393 1.51 9.128 2.607 6.113 3.62 3.93 5.648 2.35 8.357c-.044.075-.017.23.033.316A12.954 12.954 0 0 0 5.25 12.15c2.089 1.768 4.485 2.75 6.987 2.785zm.25-3.215c-1.824-.011-3.258-1.438-3.252-3.235a3.252 3.252 0 0 1 3.28-3.247 3.272 3.272 0 0 1 3.235 3.276c-.006 1.769-1.48 3.217-3.264 3.206z"
        />
    </g>
</svg>
