<svg xmlns="http://www.w3.org/2000/svg" width="24" height="21" viewBox="0 0 24 21">
    <g>
        <path
            d="M18.12,6.52V.77h.58V0H5.3V.79h.57V6.54H0v.79H.6V19.19H5.9V21H18.12V19.18h5.29V7.32H24v-.8ZM5.87,18H1.81V7.75H5.87Zm11,1.83h-1V13.7h-.81v6.1h-.63V16.21a2.44,2.44,0,0,0-2.11-2.5,2.4,2.4,0,0,0-2.7,2A10.09,10.09,0,0,0,9.56,17V19.8H8.94V13.7H8.15v6.1h-1V1.2h9.77ZM22.18,18H18.12V7.74h4.06ZM13,2.24H11V5.06h2ZM11,12.62h2V9.91H11Zm2-6.49H11V8.84h2ZM9.73,2.25H8.15V5.06H9.73Zm6.12,0H14.26v2.8h1.59ZM9.73,8.85V6.13H8.15V8.85Zm4.53,0h1.58V6.13H14.26ZM9.73,9.91H8.15v2.71H9.73Zm4.53,2.71h1.58V9.91H14.26Zm6.33,3.69h.76v-2h-.76Zm-1.63,0h.76v-2H19Zm2.39-4.86h-.77v2h.77Zm-2.39,2h.77v-2H19Zm2.39-4.86h-.77v2h.77Zm-1.63,0H19v2h.77ZM4.27,16.3H5v-2H4.27Zm-1.63,0h.78v-2H2.64ZM5,11.45H4.27v2H5Zm-2.39,2h.77v-2H2.65ZM5,8.58H4.28v2H5Zm-1.63,0H2.64v2h.77Z"
        />
    </g>
</svg>
