<svg xmlns="http://www.w3.org/2000/svg" viewBox="0 0 20 20">
    <g>
        <path
            d="M10,0A10,10,0,1,0,20,10,10,10,0,0,0,10,0Zm0,19a9,9,0,1,1,9-9A9,9,0,0,1,10,19Zm-.88-4.46h1.82V12.81H9.12Zm3.36-8.3A3.75,3.75,0,0,0,10,5.46a3.6,3.6,0,0,0-2.4.77,2.55,2.55,0,0,0-1,1.86l1.67.2a1.94,1.94,0,0,1,.64-1.14,1.78,1.78,0,0,1,1.16-.38,1.73,1.73,0,0,1,1.14.36,1.1,1.1,0,0,1,.42.86,1,1,0,0,1-.24.67,8.43,8.43,0,0,1-1,.8,3.91,3.91,0,0,0-1.06,1.1,2.57,2.57,0,0,0-.27,1.25s0,.19,0,.41h1.65a2.22,2.22,0,0,1,.13-1,2.69,2.69,0,0,1,.71-.72,7.22,7.22,0,0,0,1.45-1.39A1.89,1.89,0,0,0,13.4,8,2.32,2.32,0,0,0,12.48,6.24Z"
        />
    </g>
</svg>
