<svg xmlns="http://www.w3.org/2000/svg" width="15" height="18" viewBox="0 0 15 18">
    <g>
        <path
            d="M3.646 17.15c0-.47.38-.85.849-.85h7.967a.85.85 0 0 0 .848-.85V2.55a.85.85 0 0 0-.848-.85H4.495a.85.85 0 0 1 0-1.7h7.967a2.55 2.55 0 0 1 2.546 2.55v12.9A2.55 2.55 0 0 1 12.462 18H4.495a.849.849 0 0 1-.849-.85zm3.108-4.163a.882.882 0 0 1-.607-.237.776.776 0 0 1 0-1.144L8.07 9.794H.848c-.474 0-.858-.362-.858-.809 0-.447.384-.809.858-.809h7.22l-1.92-1.812a.776.776 0 0 1 0-1.144.894.894 0 0 1 1.212 0L10.73 8.4a.786.786 0 0 1 .267.586c0 .23-.102.439-.267.586l-3.37 3.18a.882.882 0 0 1-.606.236z"
        />
    </g>
</svg>
