<svg xmlns="http://www.w3.org/2000/svg" width="21" height="14" viewBox="0 0 21 14">
    <g>
        <path
            d="M18.38,0H2.62A2.65,2.65,0,0,0,0,2.67v8.66A2.65,2.65,0,0,0,2.62,14H18.38A2.65,2.65,0,0,0,21,11.33V2.67A2.65,2.65,0,0,0,18.38,0ZM1.31,3.5,5.91,7l-4.6,3.5Zm17.07,9.17H2.62a1.33,1.33,0,0,1-1.31-1.34L6.45,7.42,9.32,9.6a1.94,1.94,0,0,0,2.36,0l2.87-2.18,5.14,3.91A1.33,1.33,0,0,1,18.38,12.67Zm1.31-2.17L15.09,7l4.6-3.5Zm-8.4-1.43a1.33,1.33,0,0,1-1.58,0L7,7l-.55-.42L1.31,2.67h0A1.33,1.33,0,0,1,2.62,1.33H18.38a1.33,1.33,0,0,1,1.31,1.34Z"
        />
    </g>
</svg>
