<svg xmlns="http://www.w3.org/2000/svg" width="16" height="21" viewBox="0 0 16 21">
    <g>
        <path
            d="M16,1.26A1.12,1.12,0,0,0,14.75,0H1.28A1.12,1.12,0,0,0,0,1.28V13c0,2.2,0,4.48,0,6.73a1.25,1.25,0,0,0,.34.93,1.28,1.28,0,0,0,1,.36H14.74A1.13,1.13,0,0,0,16,19.73Zm-1.33,18.4H1.34V1.34H14.67ZM8,14A5.51,5.51,0,1,0,2.5,8.56,5.5,5.5,0,0,0,8,14ZM4.92,12l1-.71c.2.58.38,1.11.56,1.66A4.37,4.37,0,0,1,4.92,12Zm4.19-.72c-.12.37-.24.73-.38,1.09a2.09,2.09,0,0,1-.26.46c-.33.47-.61.47-.94,0A4.8,4.8,0,0,1,6.84,11a4,4,0,0,1,2.31,0A2.19,2.19,0,0,1,9.11,11.24Zm.21-1.15a5.7,5.7,0,0,0-2.63,0L6.6,8.85H9.39C9.37,9.25,9.35,9.65,9.32,10.09Zm.15,2.82c.19-.55.37-1.08.56-1.66l1.06.71A4.46,4.46,0,0,1,9.47,12.91Zm2.23-1.62-1.43-.86a.3.3,0,0,1-.1-.19c0-.45.07-.91.11-1.38h2.33A4.51,4.51,0,0,1,11.7,11.29ZM12.59,8H10.26c0-.4-.09-.8-.12-1.19a.16.16,0,0,1,.07-.14l1.5-.88A4.51,4.51,0,0,1,12.59,8Zm-1.5-2.89L10,5.79c-.22-.59-.43-1.14-.65-1.71A4.53,4.53,0,0,1,11.09,5.06ZM7.62,4.32c.26-.32.47-.32.75,0A3.93,3.93,0,0,1,9.1,6.06a3.9,3.9,0,0,1-2.22,0A4.05,4.05,0,0,1,7.62,4.32ZM9.29,6.94c0,.35.06.67.09,1H6.63c0-.33,0-.65.08-1A6.07,6.07,0,0,0,9.29,6.94ZM6.65,4.08,6,5.79,4.91,5.07A4.36,4.36,0,0,1,6.65,4.08ZM4.3,5.74l1.49.88a.16.16,0,0,1,.08.12c0,.4-.08.8-.13,1.21H3.41A4.56,4.56,0,0,1,4.3,5.74ZM5.72,8.86c0,.47.08.94.11,1.42a.15.15,0,0,1-.07.13l-1.46.88a4.65,4.65,0,0,1-.91-2.43Zm6.76,6.68H3.54a.44.44,0,0,0-.41.42.45.45,0,0,0,.41.45h8.93a.43.43,0,0,0,0-.86Zm-2.11,2.21H5.63c-.28,0-.45.14-.47.37a.4.4,0,0,0,.4.48H10.5a.41.41,0,0,0,.34-.49C10.81,17.88,10.65,17.75,10.37,17.75Z"
        />
    </g>
</svg>
