<svg xmlns="http://www.w3.org/2000/svg" width="23" height="23" viewBox="0 0 23 23">
    <g>
        <path
            d="M11.7,10.8H4.5A4.51,4.51,0,0,0,0,15.3v1.8a.9.9,0,0,0,1.8,0V15.3a2.7,2.7,0,0,1,2.7-2.7h7.2a2.7,2.7,0,0,1,2.7,2.7v1.8a.9.9,0,0,0,1.8,0V15.3A4.51,4.51,0,0,0,11.7,10.8ZM8.1,9A4.5,4.5,0,1,0,3.6,4.5,4.51,4.51,0,0,0,8.1,9Zm0-7.2A2.7,2.7,0,1,1,5.4,4.5,2.7,2.7,0,0,1,8.1,1.8Zm12,6.4h-4.9V9.4h4.9a1.82,1.82,0,0,1,1.83,1.8v1.2a.61.61,0,0,0,1.22,0V11.2A3,3,0,0,0,20.05,8.2ZM17.6,7a3,3,0,0,0,3.06-3,3.06,3.06,0,0,0-6.12,0A3,3,0,0,0,17.6,7Zm0-4.8A1.8,1.8,0,1,1,15.77,4,1.82,1.82,0,0,1,17.6,2.2Z"
        />
    </g>
</svg>
