<svg xmlns="http://www.w3.org/2000/svg" width="21" height="12" viewBox="0 0 21 12">
    <g>
        <path
            d="M20.08,5.49a.45.45,0,0,1-.45-.3,6.85,6.85,0,0,0-.76-1.14,12,12,0,0,0-5-3.61A9.74,9.74,0,0,0,12.23,0a.68.68,0,0,0-.72.52.84.84,0,0,0,.2.91L12.79,2.6l.15.17-.21,0a3.07,3.07,0,0,0-1.47.61c-.48.37-1,.71-1.48,1.06a3.77,3.77,0,0,1-2.68.78C6.15,5.15,5.2,5,4.25,4.85c-.43-.07-.87-.14-1.3-.18a.51.51,0,0,0-.53.38.68.68,0,0,0,.13.71l.83,1L4.56,8.15H2.76a1.87,1.87,0,0,0-.62.1A4.69,4.69,0,0,0,.35,9.54,1.38,1.38,0,0,0,0,10.66,1.33,1.33,0,0,0,1.4,12H14.13a9,9,0,0,0,2.36-.3,5.87,5.87,0,0,0,4.2-3.94,9.89,9.89,0,0,0,.28-1A1,1,0,0,0,20.08,5.49Zm-7-4.34a12.48,12.48,0,0,1,5.56,4.26l-4.6.27a.82.82,0,0,1,.17-.11l.63-.39A1.18,1.18,0,0,0,15,3.36l-2-2.16ZM4.07,6l0,0c.65.09,1.29.18,1.94.29A5.23,5.23,0,0,0,8.86,6.1a8.62,8.62,0,0,0,1.45-.74c.55-.35,1.06-.77,1.6-1.14A2.8,2.8,0,0,1,14,3.87c.16,0,.29.25.45.4l-.14.09c-1.59,1-3.19,2-4.78,3A3.16,3.16,0,0,1,8,7.84L6.05,8a.52.52,0,0,1-.33-.14ZM18,9.92a6,6,0,0,1-3.41,1c-4,0-8,0-11.93,0H1.38c-.15,0-.3,0-.36-.2a.45.45,0,0,1,.11-.48,3.29,3.29,0,0,1,1.44-1,1.1,1.1,0,0,1,.31,0c1.34,0,2.69,0,4-.07a14.83,14.83,0,0,0,2-.25,2.62,2.62,0,0,0,.82-.33A12.7,12.7,0,0,1,15.13,7c1.54-.13,3.08-.18,4.63-.26a2.59,2.59,0,0,1,.28,0A5.19,5.19,0,0,1,18,9.92Z"
        />
    </g>
</svg>
