<svg xmlns="http://www.w3.org/2000/svg" width="23" height="25" viewBox="0 0 23 25">
    <g>
        <path
            d="M20.933 14.013v-.001c.621-5.24-.228-8.816-1.896-10.311-.502-.478-2.668-1.902-7.189-1.923 0 0-5.353-.368-7.95 2.096C2.45 5.368 1.964 7.59 1.91 10.304c-.054 2.712-.213 7.88 4.528 9.26l.028.007.004 4.608L10 20.18c3.256.223 5.846-.451 6.125-.545.654-.22 4.205-.54 4.808-5.622zm1.665.452c-.712 6.086-5.092 6.673-5.866 6.936-.335.114-3.283.885-7.117.549a63.15 63.15 0 0 1-1.39 1.646c-.741.836-1.197 1.61-1.973 1.359-.64-.208-.605-1.228-.605-1.228l.003-2.518-.005-.001C.04 19.557.123 13.47.185 10.222.25 6.973.851 4.355 2.561 2.565 5.632-.385 11.934.013 11.934.013c4.984.023 7.406 1.61 8.192 2.287-.404-.366-1.421-1.29 0 0 .056.05.105.094.145.132 1.97 1.79 3.062 5.758 2.327 12.033zm-5.746.305c.342.302.42.744.188 1.212l-.002.01a5.005 5.005 0 0 1-.963 1.24l-.009.008c-.527.46-1.04.605-1.536.437-1.907-.788-3.843-1.924-5.632-3.822-1.808-1.922-3.02-4.08-3.649-6.105l-.064-.295c-.122-.735.327-1.228 1.565-2.084l.022-.017c.431-.271.859-.137 1.135.098.255.186.974 1.158.974 1.158.141.22 1.13 1.467.902 2.065-.078.344-.657.706-.97 1.003l-.024.02c-.133.227-.187.38-.143.712l.012.053c.162.807.617 1.583 1.37 2.326.743.736 1.47 1.174 2.154 1.348.096.02.461.072.698-.236l.463-.608c.222-.303.762-.496 1.29-.188.294.174.82.515 1.15.768.35.27 1.066.895 1.069.897m-2.97-4.433a.145.145 0 0 1-.142-.142c-.025-.524-.163-.926-.411-1.195-.247-.266-.616-.415-1.098-.442a.148.148 0 0 1-.135-.157.146.146 0 0 1 .15-.141c.557.031.99.21 1.288.533.297.322.462.788.491 1.388a.147.147 0 0 1-.135.156h-.008m1.412.495h-.004a.147.147 0 0 1-.14-.153c.023-1.007-.265-1.858-.855-2.532a3.124 3.124 0 0 0-1.06-.79 4.215 4.215 0 0 0-1.424-.345.147.147 0 0 1-.132-.16.145.145 0 0 1 .152-.138c1.138.088 2.037.502 2.675 1.232.64.73.954 1.654.93 2.74a.147.147 0 0 1-.142.146m1.445.592a.146.146 0 0 1-.143-.148c-.007-.89-.138-1.696-.391-2.395a5.083 5.083 0 0 0-2.814-2.965 5.44 5.44 0 0 0-2.056-.396.146.146 0 0 1-.14-.15c0-.083.064-.149.142-.149 1.562.012 2.886.562 3.938 1.634.527.539.93 1.185 1.196 1.92.265.731.403 1.573.41 2.498.001.083-.063.15-.141.15z"
        />
    </g>
</svg>
