<svg xmlns="http://www.w3.org/2000/svg" width="24" height="25" viewBox="0 0 24 25">
    <g>
        <path
            d="M.098 24.5l1.682-6.162a11.904 11.904 0 0 1-1.582-5.946C.2 5.834 5.518.499 12.05.499c3.17.002 6.146 1.24 8.383 3.488a11.842 11.842 0 0 1 3.468 8.414c-.002 6.558-5.32 11.893-11.851 11.893h-.005a11.811 11.811 0 0 1-5.664-1.447zm6.574-3.806l.36.214a9.808 9.808 0 0 0 5.014 1.378h.004c5.43 0 9.848-4.435 9.85-9.885a9.844 9.844 0 0 0-2.882-6.994 9.768 9.768 0 0 0-6.964-2.9c-5.434 0-9.853 4.435-9.855 9.886 0 1.867.52 3.687 1.506 5.26l.234.374-.995 3.648zm11.176-4.051c-.247.694-1.43 1.327-1.999 1.413-.51.076-1.156.108-1.865-.118-.43-.137-.982-.32-1.688-.626-2.971-1.287-4.911-4.29-5.06-4.487-.147-.198-1.208-1.612-1.208-3.075 0-1.462.765-2.181 1.036-2.479.271-.297.592-.371.79-.371.197 0 .395.002.567.01.182.01.426-.07.667.51.246.595.839 2.058.913 2.207.074.148.123.322.024.52-.098.199-.148.323-.296.496s-.31.388-.444.52c-.148.149-.303.31-.13.607.173.298.767 1.27 1.648 2.059 1.13 1.012 2.085 1.326 2.381 1.475.296.149.469.124.642-.075.172-.198.74-.867.937-1.164.198-.298.395-.249.667-.15.271.1 1.727.819 2.023.967.296.15.494.223.568.347.074.124.074.72-.173 1.414z"
        />
    </g>
</svg>
